<svg data-name="De Creatieve Hoek Logo 2017" xmlns="http://www.w3.org/2000/svg" viewBox="0 0 368.75 368.75"><title>Logo De Creatieve Hoek 2017</title><path class="cls-1" d="M0 0h368.75v368.75H0z"/><path class="cls-2" d="M351.11 208.11V17.63H17.63v333.48h332.78l-12.58-12.58H30.21V30.21h308.32v190.48z"/><path class="cls-2" d="M175.8 138.08h-36v8.32h31.7v12.67h-31.7v8.69h36v12.67h-48.65v-54.94l48.64-.07zM151.44 252.45a26.6 26.6 0 0 1 10.7 2.17 28.29 28.29 0 0 1 8.76 5.88 27.58 27.58 0 0 1 5.91 8.73 27.56 27.56 0 0 1 0 21.44 27.57 27.57 0 0 1-5.91 8.73 28.29 28.29 0 0 1-8.76 5.88 27.46 27.46 0 0 1-21.41 0 27.51 27.51 0 0 1-14.6-14.62 27.56 27.56 0 0 1 0-21.44 27.49 27.49 0 0 1 14.6-14.62 26.59 26.59 0 0 1 10.71-2.15zm0 42.35a14.4 14.4 0 0 0 5.77-1.16 14.9 14.9 0 0 0 7.91-7.91 14.89 14.89 0 0 0 0-11.54 14.93 14.93 0 0 0-7.91-7.91 14.93 14.93 0 0 0-11.54 0 15 15 0 0 0-7.91 7.91 14.93 14.93 0 0 0 0 11.54 14.93 14.93 0 0 0 7.91 7.91 14.41 14.41 0 0 0 5.81 1.16zM175.8 201.6h-36v8.32h31.7v12.67h-31.7v8.69h36v12.67h-48.65V189l48.64-.07zM159.72 64.28a31.59 31.59 0 0 1 8.39 6.07 28.31 28.31 0 0 1 5.63 8.65 27.22 27.22 0 0 1 2.06 10.57 26.6 26.6 0 0 1-2 10.38 27.19 27.19 0 0 1-5.58 8.51 27.57 27.57 0 0 1-8.36 5.88 28.16 28.16 0 0 1-10.42 2.51h-22.29V61.58h22.26s5.99.42 10.31 2.7zm-19.9 39.88c1.95-.2 9.39.57 15-1.54a12 12 0 0 0 4.35-3.15 14.23 14.23 0 0 0 3.94-9.86 15.07 15.07 0 0 0-1.03-5.61 15.58 15.58 0 0 0-7.27-8.09c-5.1-2.64-13-1.41-15-1.61zM307.61 125.19v12.67h-18v42.57h-12.7v-42.57H259v-12.67zM306.91 252.43h-17.5l-17.77 17.35v-17.35h-12.69v55.09h12.69v-17.34l17.67 17.35h17.56L279.34 280zM307.61 201.54h-36v8.32h31.7v12.67h-31.7v8.69h36v12.67H259V189l48.64-.07zM287.3 116.78a28.19 28.19 0 0 1-10.38-2 26.46 26.46 0 0 1-9.11-6 27.94 27.94 0 0 1-6-9 27.46 27.46 0 0 1 6-30 26.85 26.85 0 0 1 9.19-6.06 27.51 27.51 0 0 1 20.72 0 27 27 0 0 1 9.1 6.07l-8.92 8.92a14.34 14.34 0 0 0-4.95-3.26 15.3 15.3 0 0 0-5.62-1.09 15 15 0 0 0-5.58 1.09 14.42 14.42 0 0 0-4.91 3.26 15.58 15.58 0 0 0-3.22 4.87 14.64 14.64 0 0 0-1.12 5.7 14.37 14.37 0 0 0 1.12 5.66 15.66 15.66 0 0 0 3.22 4.84 14.42 14.42 0 0 0 4.91 3.26 15 15 0 0 0 5.58 1.09 15.3 15.3 0 0 0 5.62-1.09 14.34 14.34 0 0 0 4.95-3.26l8.92 9a26.58 26.58 0 0 1-9.07 6 28.1 28.1 0 0 1-10.45 2zM228.37 180.32l-2.17-6.67h-17.32l-2.25 6.67h-13.41l18.74-55h12l17.76 55zM213.23 161h8.92l-4.35-13.34zM241.68 265.34h-36v8.32h31.7v12.67h-31.7V295h36v12.67H193v-54.92l48.64-.07zM228.19 188.65h13.42l-18.74 55.46h-12l-17.77-55.46h13.34l10.57 34zM241.68 73.72h-36V82h31.7v12.71h-31.7v8.69h36v12.67H193V61.13l48.64-.07zM86.25 166c-.65.1-1.3.18-2 .22s-9.57.1-10.27.15v13.87H61.36v-54.82h20.92a24.73 24.73 0 0 1 8.84 1.72 24.43 24.43 0 0 1 7.23 4.42 20.35 20.35 0 0 1 4.87 6.44 17.94 17.94 0 0 1 1.76 7.86 18.2 18.2 0 0 1-1.87 8.2 19.76 19.76 0 0 1-5.25 6.55l12.14 19.6H95.09zM74 153.6c1.35 0 9.41.64 12.11-.71a20.5 20.5 0 0 0 3.22-1.69 8 8 0 0 0 2.17-2.44 5.89 5.89 0 0 0 .79-3 5.7 5.7 0 0 0-.79-2.93 8.23 8.23 0 0 0-2.17-2.4 14.35 14.35 0 0 0-3.22-1.69c-4-1.63-10.76-.66-12.11-.71zM97.34 252.45H110v55H97.34V286.7H74v20.76H61.36v-55H74V274h23.34zM109.78 201.51v-12.67H61.14v12.67h18.21v29.77H61.14v12.67h48.64v-12.67H92.02v-29.77h17.76z"/><path class="cls-3" d="M107.92 94.74l.23 8.52H97.47l-1.65 14.15h-8.09l1.65-14.08H78.17l-1.57 14.08h-7.79l1.65-14.08-8.86.07-.22-8.52L72 94.82l1.28-10.46h-9.6l-.18-7.57h10.69l2-15.69h7.71L82 76.67h11.1l2-15.61h8l-2 15.54h8.9v7.34l-9.72.35L99 94.74zm-28.18.08l11.13-.08 1.28-10.46-11.15.08z"/></svg>