<svg id="de-creatieve-hoek-logo" data-name="De Creatieve Hoek Logo 2017" xmlns="http://www.w3.org/2000/svg" viewBox="0 0 368.75 368.75"><defs></defs><title>Logo De Creatieve Hoek 2017</title><rect class="cls-1" width="368.75" height="368.75"/><path class="cls-2" d="M351.11,208.11V17.63H17.63V351.11H350.41l-12.58-12.58H30.21V30.21H338.53V220.69Z"/><path class="cls-2" d="M175.8,138.08h-36v8.32h31.7v12.67h-31.7v8.69h36v12.67H127.15V125.49l48.64-.07Z"/><path class="cls-2" d="M151.44,252.45a26.6,26.6,0,0,1,10.7,2.17,28.29,28.29,0,0,1,8.76,5.88,27.58,27.58,0,0,1,5.91,8.73,27.56,27.56,0,0,1,0,21.44,27.57,27.57,0,0,1-5.91,8.73,28.29,28.29,0,0,1-8.76,5.88,27.46,27.46,0,0,1-21.41,0,27.51,27.51,0,0,1-14.6-14.62,27.56,27.56,0,0,1,0-21.44,27.49,27.49,0,0,1,14.6-14.62A26.59,26.59,0,0,1,151.44,252.45Zm0,42.35a14.4,14.4,0,0,0,5.77-1.16,14.9,14.9,0,0,0,7.91-7.91,14.89,14.89,0,0,0,0-11.54,14.93,14.93,0,0,0-7.91-7.91,14.93,14.93,0,0,0-11.54,0,15,15,0,0,0-7.91,7.91,14.93,14.93,0,0,0,0,11.54,14.93,14.93,0,0,0,7.91,7.91A14.41,14.41,0,0,0,151.48,294.8Z"/><path class="cls-2" d="M175.8,201.6h-36v8.32h31.7v12.67h-31.7v8.69h36v12.67H127.15V189l48.64-.07Z"/><path class="cls-2" d="M159.72,64.28a31.59,31.59,0,0,1,8.39,6.07A28.31,28.31,0,0,1,173.74,79a27.22,27.22,0,0,1,2.06,10.57,26.6,26.6,0,0,1-2,10.38,27.19,27.19,0,0,1-5.58,8.51,27.57,27.57,0,0,1-8.36,5.88,28.16,28.16,0,0,1-10.42,2.51H127.15V61.58h22.26S155.4,62,159.72,64.28Zm-19.9,39.88c1.95-.2,9.39.57,15-1.54a12,12,0,0,0,4.35-3.15,14.23,14.23,0,0,0,3.94-9.86A15.07,15.07,0,0,0,162.08,84a15.58,15.58,0,0,0-7.27-8.09c-5.1-2.64-13-1.41-15-1.61Z"/><path class="cls-2" d="M307.61,125.19v12.67h-18v42.57H276.91V137.86H259V125.19Z"/><path class="cls-2" d="M306.91,252.43H289.41l-17.77,17.35V252.43H258.95v55.09h12.69V290.18l17.67,17.35h17.56L279.34,280Z"/><path class="cls-2" d="M307.61,201.54h-36v8.32h31.7v12.67h-31.7v8.69h36v12.67H259V189l48.64-.07Z"/><path class="cls-2" d="M287.3,116.78a28.19,28.19,0,0,1-10.38-2,26.46,26.46,0,0,1-9.11-6,27.94,27.94,0,0,1-6-9,27.46,27.46,0,0,1,6-30A26.85,26.85,0,0,1,277,63.72a27.51,27.51,0,0,1,20.72,0,27,27,0,0,1,9.1,6.07l-8.92,8.92a14.34,14.34,0,0,0-4.95-3.26,15.3,15.3,0,0,0-5.62-1.09,15,15,0,0,0-5.58,1.09,14.42,14.42,0,0,0-4.91,3.26,15.58,15.58,0,0,0-3.22,4.87,14.64,14.64,0,0,0-1.12,5.7,14.37,14.37,0,0,0,1.12,5.66,15.66,15.66,0,0,0,3.22,4.84,14.42,14.42,0,0,0,4.91,3.26,15,15,0,0,0,5.58,1.09,15.3,15.3,0,0,0,5.62-1.09,14.34,14.34,0,0,0,4.95-3.26l8.92,9a26.58,26.58,0,0,1-9.07,6A28.1,28.1,0,0,1,287.3,116.78Z"/><path class="cls-2" d="M228.37,180.32l-2.17-6.67H208.88l-2.25,6.67H193.22l18.74-55h12l17.76,55ZM213.23,161h8.92l-4.35-13.34Z"/><path class="cls-2" d="M241.68,265.34h-36v8.32h31.7v12.67h-31.7V295h36v12.67H193V252.75l48.64-.07Z"/><path class="cls-2" d="M228.19,188.65h13.42l-18.74,55.46h-12l-17.77-55.46h13.34l10.57,34Z"/><path class="cls-2" d="M241.68,73.72h-36V82h31.7V94.71h-31.7v8.69h36v12.67H193V61.13l48.64-.07Z"/><path class="cls-2" d="M86.25,166c-.65.1-1.3.18-2,.22s-9.57.1-10.27.15v13.87H61.36V125.42H82.28a24.73,24.73,0,0,1,8.84,1.72,24.43,24.43,0,0,1,7.23,4.42,20.35,20.35,0,0,1,4.87,6.44,17.94,17.94,0,0,1,1.76,7.86,18.2,18.2,0,0,1-1.87,8.2,19.76,19.76,0,0,1-5.25,6.55L110,180.21H95.09ZM74,153.6c1.35,0,9.41.64,12.11-.71a20.5,20.5,0,0,0,3.22-1.69,8,8,0,0,0,2.17-2.44,5.89,5.89,0,0,0,.79-3,5.7,5.7,0,0,0-.79-2.93,8.23,8.23,0,0,0-2.17-2.4,14.35,14.35,0,0,0-3.22-1.69c-4-1.63-10.76-.66-12.11-.71Z"/><path class="cls-2" d="M97.34,252.45H110v55H97.34V286.7H74v20.76H61.36v-55H74V274H97.34Z"/><polygon class="cls-2" points="109.78 201.51 109.78 188.84 92.02 188.84 79.35 188.84 61.14 188.84 61.14 201.51 79.35 201.51 79.35 231.28 61.14 231.28 61.14 243.95 109.78 243.95 109.78 231.28 92.02 231.28 92.02 201.51 109.78 201.51"/><path class="cls-3" d="M107.92,94.74l.23,8.52H97.47l-1.65,14.15H87.73l1.65-14.08H78.17l-1.57,14.08H68.81l1.65-14.08-8.86.07-.22-8.52L72,94.82l1.28-10.46-9.6,0-.18-7.57H74.19l2-15.69h7.71L82,76.67H93.1l2-15.61h8l-2,15.54H110l0,7.34-9.72.35L99,94.74Zm-28.18.08,11.13-.08,1.28-10.46L81,84.36Z"/></svg>
