<svg id="Laag_1" data-name="Laag 1" xmlns="http://www.w3.org/2000/svg" viewBox="0 0 969.39 89.89"><title>border-before</title><path d="M969.39,2.72a2,2,0,0,1-2.7-.5l.4-.3c-3,.8-3.2,1.5-3,2.4a.85.85,0,0,0,0,.7.85.85,0,0,0,0,.7.85.85,0,0,0,0,.7v.2a5,5,0,0,1-1.5,1.7l-4.4-6.4-.2,2.8c-.7,0-2.1-.1-2-1.2-1,.9-1,1.3-.7,1.5-.2.4-.2.5,0,.7-.2.4-.2.5,0,.7a4.42,4.42,0,0,0-1.5-.5l-.2-.2.2-.1-.5-.2-.1-.1.8.1-.4-.4.2-.1-.5-.2-.1-.1.8.1-.4-.4.2-.1-.6-.2-.1-.1.8.1-.4-.4.2-.1-.5-.2-.1-.1.8.1-.4-.4.2-.1-.5-.2-.2-.3a1.85,1.85,0,0,1,.7-.2l-.9-.3a3.55,3.55,0,0,1,.9-.4l-.9-.3a3.55,3.55,0,0,1,.9-.4c-3-1.1-2.8-.8-2.5,0-.3,0-.2.3,0,.7-.3,0-.2.3,0,.7-.2,0-.2.2-.1.4a4.92,4.92,0,0,1-2.1.4l2,.2c0,.1,0,.1.1.2a4.92,4.92,0,0,1-2.1.4l2,.2c0,.1,0,.1.1.2a4.92,4.92,0,0,1-2.1.4l2,.2c0,.1,0,.1.1.2a4.92,4.92,0,0,1-2.1.4l2,.2c0,.1,0,.1.1.2a4.92,4.92,0,0,1-2.1.4l2,.2c-1.73.2-3.38.53-4.55-.07l-.05.07a2.86,2.86,0,0,1-.3-.29,3,3,0,0,1-1-1.51,1.39,1.39,0,0,0,0,.9.85.85,0,0,0,0,.7.85.85,0,0,0,0,.7c0,.1-.1.2-.1.3-1.4-2.9-3-.1-5.3.1l-.2-.2c.3-.2.4-.3,0-.7.3-.2.4-.3,0-.7.3-.2.4-.3,0-.7.5-.3.5-.5-1.2-1.5-.5,1.9-1.7,2-3.1,1.6,0-.1-.1-.1-.2-.2.3-.2.2-.5,0-.7.3-.2.2-.5,0-.7.3-.2.2-.5,0-.7.8-.6-1-1.2-1-1.6-1,.7-1.5,1-1,1.4-.3.3-.3.5,0,.7-.3.3-.3.5,0,.7-.1.1-.2.2-.2.3a4.45,4.45,0,0,0-2.7-.31V4a.7.7,0,0,0,0-.11H930a4.92,4.92,0,0,0-.6-1.7c-.7-.1-.6,2.5-.6,3.6v.1c-1.8.7-5.3.3-8.1,1.2.1-1.1-8.2-1.2-12.2-2.1V3.92c-.2,2.9-3.5,3-6.2,3.6H902c.3-.3.6-.5.9-.8l-.9.1c.3-.3.6-.5.9-.8H902c.3-.3.6-.5.9-.8l-.9.1c.3-.3.6-.5.9-.8l-.9.1c.3-.3.6-.5.9-.8l-2.3.2c.1-.2.1-.3.2-.5l-.4.5a4.88,4.88,0,0,0,.4-1.1l-1.2,1.3h.7l-.7.7h.3a4.25,4.25,0,0,1-2.3,1.4V6h-.1l.1-.7h-.1l.1-.7h-.1l.1-.7c-3.7.4-7,3.4-11.9,2,0,.2.1.5.1.7h-.1c0,.2.1.5.1.7h-.1c0,.2.1.5.1.7h-.1c0,.2.1.5.1.7h-.1c0,.2.1.5.1.7h-.1c0,.2.1.5.1.7a.9.9,0,0,0,.1.5h-.1v.1c0,.1-.3.2-.5.3a2.12,2.12,0,0,1,.3-.7c-.1.1-.3.1-.4.2l-.3-.1.5-.6a4.33,4.33,0,0,0-.5-.1l.5-.7c-.1,0-.3-.1-.4-.1l.4-.6c-2.2-.7-1,1.6-2.4,1.7h-.2v-.3a.83.83,0,0,0,.8-.3,3.55,3.55,0,0,1-1-.2.22.22,0,0,1-.2-.2,1.06,1.06,0,0,0,1.2-.2,12.86,12.86,0,0,1-1.9-.4c-.1-.1-.1-.2-.2-.2.5,0,1.5.6,2-.1a15.52,15.52,0,0,1-2.1-.4v-.1c.4-.2,1.6.6,2.2-.1-2-.2-4.5-1.1-5.4-2.4.1.3.1.6.2.9l-.2-.2a1.48,1.48,0,0,1,.1.7v.1l-.1-.1c0,.1.1.2.1.3s-.1.2-.1.3a3,3,0,0,0-.4-.8,1.91,1.91,0,0,0,.3.8c0,.1-.1.1-.2.2-.1-.1-.1-.2-.2-.3,0,.1.1.3.1.4a1.23,1.23,0,0,1-.8.4c-3.7.4-1.5-2-3.8-2.8-.7,1.3-3.2.2-2.9,2.8-1.1,0-1.4-1.2-1.9-1.9-1.6,1.2-7.6.9-6.8,2.9a.6.6,0,0,0-.1.4,1.27,1.27,0,0,0-.6-.1l.6.2c0,.1,0,.1.1.2a.6.6,0,0,0-.1.4,1.27,1.27,0,0,0-.6-.1l.6.2v.1l-.9.3-2.2-.8c0,.8,1,.7,2,.8a3.55,3.55,0,0,1-1,.2l-1-.3c0,.2,0,.3.2.4-5.1.6-10.7-1.5-15.5-.3l-.1-.9c-3.6,1.2-8.2,1-10.6,3.1-1.1.1-2.8-1.5-2.4-2.5-.4.1-.8.3-1.2.4V7c-1,.2-.9.5-.6.9-.3.2-.2.4,0,.7-.3.2-.2.4,0,.7-.3.2-.2.4,0,.7-.3.2-.2.4,0,.7-.1.1-.2.1-.2.2a6.06,6.06,0,0,1-4.2.1c-.1-.4-.8-.2,1.8-.2a9.51,9.51,0,0,1-1.8-.4c.2-.6-1.1-.4,1.8-.3a9.51,9.51,0,0,1-1.8-.4c.2-.6-1.1-.4,1.8-.3-3.7-.5-4.7-1.9-8.2.6v-.2c.5-2-3.3-2.3-4.9-1.6l.8.4c-.3.1-.6.1-.8.2l.8.4c-.3.1-.6.1-.8.2l.7.4a13.11,13.11,0,0,1-2.8,0l.1-.3h-.1V9h-.1l.1-.6h-.1l.1-.6h-.1l.1-.6c-6.4-2.6-10.9,3.5-15.8,2.8a6.42,6.42,0,0,1-3.4-1.9c-.4.5-.4.8-.2,1a.85.85,0,0,0,0,.7.85.85,0,0,0,0,.7.6.6,0,0,0-.1.4c-2.5-1.3-4.8-3.4-5.6-3.3-4.9-1.4-4,4.6-9,3.7a2.51,2.51,0,0,1,.4.7h-.4a2.51,2.51,0,0,1,.4.7h-.4a2.51,2.51,0,0,1,.4.7h-.4a2.51,2.51,0,0,1,.4.7h-.4l.3.6-.1.1h-.2l.1.2a4.31,4.31,0,0,1-1.9,1.3.47.47,0,0,0-.1-.6.48.48,0,0,0,0-.7.48.48,0,0,0,0-.7.48.48,0,0,0,0-.7.48.48,0,0,0,0-.7.48.48,0,0,0,0-.7.48.48,0,0,0,0-.7.48.48,0,0,0,0-.7c.2-.3.2-.7-.5-1.2l-.3,1.1c-1.5-.8-5-.8-5.6-1.7v-.2a.85.85,0,0,1,0-.7c-1.3.6-1.5,1-1.1,1.4a.52.52,0,0,0-.2.4c-3.2-.4-5.4.6-9.2-.1a3,3,0,0,1,.8.8l-.8-.1a3,3,0,0,1,.8.8l-.8-.1c.1.1.3.2.4.3-6.2-.8-2.4,2.2-6.8,2.9-2.7-1.5.6-3.9-3.9-2.3h-.1l.3-.2c-.1.1-.2.1-.4.2l-.4-.2a5,5,0,0,1,.8-.7,5.37,5.37,0,0,1-1.1.5,6.79,6.79,0,0,1,1.2-1.2,6.12,6.12,0,0,1-1.2.5,13.58,13.58,0,0,1,1.2-1.2,6.11,6.11,0,0,1-1.2.5,6.89,6.89,0,0,1,1.1-1.3,6.12,6.12,0,0,1-1.2.5,13.58,13.58,0,0,1,1.2-1.2c-3.1,1.7-6.1.2-8.4-.7a6.88,6.88,0,0,1-.8-.3l1.1-.5a6.47,6.47,0,0,1-1.3.4c-.3-.1-.5-.1-.8-.2l2.1-1a6.83,6.83,0,0,1-3.4.6l.5.7h-.5l.5.7h-.5l.3.5c-.8-.1-1.3-.3-1.3-.9a2,2,0,0,0-.3,1.5v3.2a2.36,2.36,0,0,1-.8.9c-1-.5-2.4-.1-3.6,0,0-.1,0-.2-.1-.2.1-.1.2-.1.3-.2h-.3a.9.9,0,0,0-.1-.5c.1-.1.2-.1.3-.2H730a.9.9,0,0,0-.1-.5c.1-.1.2-.1.3-.2h-.3a.9.9,0,0,0-.1-.5.52.52,0,0,1,.4-.2h-.4l-.1-.3a1.28,1.28,0,0,1,.6-.4h-.7v-.2a1.06,1.06,0,0,1,.7-.6h-.7a1.21,1.21,0,0,1,.7-.7,6.73,6.73,0,0,1-2-.1l.2-.1L728,8a1.2,1.2,0,0,1,.5-.5c-5.3-2.3-2.1,3.2-7.4,3.4v-.2a2.24,2.24,0,0,0-2.4-2.4c.8,0,1.2.4,1.2.9a1.32,1.32,0,0,0-1.2-.2c.7,0,1.1.3,1.2.7v.2a1.64,1.64,0,0,0-1.2-.2,1.19,1.19,0,0,1,1.1.4c0,.1-.1.2-.2.3a1.41,1.41,0,0,0-.9-.1,2.92,2.92,0,0,1,.9.2,1.38,1.38,0,0,1-.3.4.64.64,0,0,0-.6,0,.9.9,0,0,1,.5.1,5.73,5.73,0,0,1-1.1,1.1c-3.5-1.1-3.7,1.1-5.5,1l1.3.3a2,2,0,0,1-1.3.4l1.3.3a2,2,0,0,1-1.3.4l1.1.3a5.64,5.64,0,0,1-1.2.4l-1.2-.1a2,2,0,0,0,1.1.3c-.6.1-1.3.2-2.1.4l-.3.1a.67.67,0,0,1,.3-.8c-2.4,1-5.7-3.1-8.9-1.3-1.8-1-.4-3-2-3.7-4,2.2-4.7-2-8.9-.2l.4.5-.4.1.4.5-.4.1.4.5-.4.1.3.5-.3.2-1.3,1,1.4-.3-1.3,1,1.4-.3-1.3,1,1.4-.4-1.3,1,1.4-.3-1.3,1,1.4-.4-1.3,1,1.4-.3-1,.7a3.2,3.2,0,0,1-1.9-.5l-.3-5.3c-5.3-2.2-9,3-15.7,1.9l2.2.8a8.2,8.2,0,0,1-2.2-.2l1.9.7-.1.1a8.81,8.81,0,0,1-1.7-.2l1.2.5c-1.4.5-3.6-.3-5.2.4.1-1.8-1.3-2.4-2.3-3.4a.6.6,0,0,1-.1.4,4.35,4.35,0,0,0-.6-.7,2.18,2.18,0,0,0,.5.8c-.1,0-.2.1-.3.1l-.2-.2c0,.1.1.2.1.3-1.3.4-4.4.3-4.7,3l-3.1-2.2c-4.8-.7-5.7,3.9-9.5,4.7a3,3,0,0,1,.8-.4h-1.2a7.46,7.46,0,0,1,1.2-.7h-1.2a7.46,7.46,0,0,1,1.2-.7h-1.2a7.46,7.46,0,0,1,1.2-.7h-1.2a7.46,7.46,0,0,1,1.2-.7h-1.2a7.46,7.46,0,0,1,1.2-.7h-1.2a7.46,7.46,0,0,1,1.2-.7c-1.7,0-3.3-.2-3.3,1-.9-.9-3.3,1.3-5.2,1.3l-.3-.1.2.1a1.27,1.27,0,0,1-.6-.1h.3a1.27,1.27,0,0,0-.6-.1c-.1-.1-.2-.1-.3-.2a1.38,1.38,0,0,0-.3.4c-.5.9-.8,2.2-2.5,2.2v-.6c-.3.6-2,1.1-1.6,2.2,0,.1-.1.2-.1.3-3.8-3-9.1-1.4-13.6-1.5v-3.3c.2-1-.3-2-1.6-1.4l.2.6h-.2l.2.6-.2.1.2.6h-.2l.2.6h-.2l.2.6h-.2l.2.6h-.2l.1.5a7,7,0,0,1-3.4-1.2h.1l-.2-.1a2.65,2.65,0,0,1-.6-.5c-3.6.6-7.8,1.3-11.2,1.5l-.5-.1c.08-.34,0-.6.38-.55-4.11-1.13-2.85,4-6.68,3.75l-.2-.2v-.2c.4-.1.6-.2,0-.5v-.2c.4-.1.6-.2,0-.5v-.2c.4-.1.6-.2,0-.5v-.2c.4-.1.6-.2,0-.5-1-5.5-5.9.3-9.7-2l.3-.1a2,2,0,0,0-.8-.4l.8-.3c-2.8-1.9-6.6,2.3-11.2,2v-.1a1.1,1.1,0,0,0,0-.8c-2.7,2.7-7.6,3.9-11.7,4.7v-.2a.85.85,0,0,0,0-.7.85.85,0,0,0,0-.7c.2-.3.1-.6-.4-1.7-1.9.4.7,3.7-3.2,4.4a8.74,8.74,0,0,0-1-.8h.1c-.2-.2-.3-.5-.5-.7h.5c-.2-.2-.3-.5-.5-.7h.5c-.2-.2-.3-.5-.5-.7h.5c-.2-.2-.3-.5-.5-.7h.5c-.2-.2-.3-.5-.5-.7h.5c-.2-.2-.3-.5-.5-.7h.5c-1.9-3.1-4.6,0-6.5-.3h-.1l.1-.7h-.1l.1-.7c-5.5.5-5.6,3.9-11.4,3.9l-.2-.1a.75.75,0,0,0,.5-.1,2.65,2.65,0,0,0-.5-.6.75.75,0,0,0,.5-.1,2.65,2.65,0,0,0-.5-.6.75.75,0,0,0,.5-.1c-.9-1.4-3.1-2.3-4.3-.9.3,0,.5.1.8.1a2.18,2.18,0,0,0-.8.5c.3,0,.5.1.8.1a1.56,1.56,0,0,0-.8.6c.3,0,.5.1.8.1a1.56,1.56,0,0,0-.8.6c.3,0,.5.1.8.1a1.56,1.56,0,0,0-.8.6c.3,0,.5.1.8.1a2.18,2.18,0,0,0-.8.5c.3,0,.5.1.8.1l-.2.1c-.5-.3-1.2-.3-2.3.6l-1.1-3.5c-.7.3-1.9.8-3.2,1.4h-.2c.5-.2,1-.5,1.4-.7h-1.4c.5-.2,1-.5,1.4-.7h-1.4c.5-.2,1-.5,1.4-.7h-1.4c.5-.2,1-.5,1.4-.7-2.2,0-7.4.4-8.4,2.1.8-.3,1.8-1.1,2.7-.8a4.87,4.87,0,0,0-2.7,1.5,9.17,9.17,0,0,1,2.3-.9l-.3.3a3.36,3.36,0,0,0-2,1.3c.3-.1.7-.4,1.1-.6a14.26,14.26,0,0,1-8.7,2.7v-.1c.5-6.7-11.3-1.5-14.5-6.8-7.6,2.6-15.2-.9-24-.5a2.51,2.51,0,0,1,.4.7h-.4a2.51,2.51,0,0,1,.4.7h-.4a2.51,2.51,0,0,1,.4.7h-.4a2.51,2.51,0,0,1,.4.7h-.4c-.9.1-2.2.1-2,2.5v.4a6.88,6.88,0,0,1-1.3.2v-.3a.85.85,0,0,0,0-.7.85.85,0,0,0,0-.7.85.85,0,0,0,0-.7.85.85,0,0,0,0-.7.85.85,0,0,0,0-.7c.1-.7-.1-1.5-1.4-2,.5.4.7.7.7,1a4.34,4.34,0,0,0-.7-.4,1.34,1.34,0,0,1,.6.7.35.35,0,0,1-.1.2.76.76,0,0,0-.5-.2c.1.1.3.2.4.3-.7.8-2.4,1.5-2,2.5a.75.75,0,0,0-.1.5l-3.3-1.7a.76.76,0,0,0,.2-.5h-.4a.82.82,0,0,0,.4-.6h-.4a.84.84,0,0,0,.4-.7h-.4a.84.84,0,0,0,.4-.7h-.4a.82.82,0,0,0,.4-.6c-4.5-.4-1.9-2.3-4.9-3.8a1.7,1.7,0,0,1,.1.7l-.1-.1c0,.1.1.2.1.3-.3,1.2-2.1,1.7-4.2,1.1l1.4.9a6.75,6.75,0,0,1-1.4-.2l1.4.9a6.75,6.75,0,0,1-1.4-.2l1.4.9a6.75,6.75,0,0,1-1.4-.2l1.4.9a6.75,6.75,0,0,1-1.4-.2l.6.4c-2.9-.3-3.6-3.8-7.5-2.8l.6-.5a4.25,4.25,0,0,1-1.1.2l1.1-.9c-3.3,1-12.1,0-15.2,4.4-.1-.1-.2-.2-.2-.3s.2-.1.3-.2h-.5c-.1-.1-.1-.2-.2-.3a2.09,2.09,0,0,1,.6-.4h-.8a.87.87,0,0,1,.8-.6h-.8a1.14,1.14,0,0,1,.8-.7c-3.9-.4-8.1.8-12.2,1.7-3.9.8-7.5,1.4-10.4.3l.1-.2-.3.1h-.1l.4-.8c-.1,0-.3.1-.4.1l.4-.8c-1.4.3-2.5,2.2-4.1,1.3,0-.1,0-.1-.1-.1a.85.85,0,0,0,0-.7c.1-.4.2-.7-.2-.8a12.14,12.14,0,0,1-4.5,1.6l.3-.3-.6-.2.6-.5-.6-.2.6-.5c-7.4-1.9-11.8,3.3-18.3,4,.3-3.9-5.5-5.4-8.5-6.2l.1-.5c-8.8-.8-15.3,2.6-23.6,3.8-4.6-4.5-17.1-2.6-25-5.5a.91.91,0,0,1,.4.8l-.4-.1c.2.1.3.2.3.4s-.1.2-.1.3l-.2-.1c.1,0,.1.1.2.2a3.53,3.53,0,0,1-2.2,1.8c-1.2-.6-3.4.7-4.4.5l-.1-.2h.3a4.88,4.88,0,0,0-.3-.7h.3a4.88,4.88,0,0,0-.3-.7h.3c-1-3.6-5.1-2.9-8.2-3.2l-1,4.7a11.08,11.08,0,0,0-2.9-1.4l.4-.2-.6.1-.5-.2,1.1-.6-1.7.3c-.4-.1-.7-.3-1.1-.4l1.1.2,1.7-.9-2.9.6c-7.5-2-17.5,2.8-20.5-2.4-2,1-4.3,1-6.3,1.9v-.3h-.1l.1-.7h-.1l.1-.7h-.1l.1-.7a62,62,0,0,0-13.6-1.2l.3-.3h-.6l.6-.7h-.6l.6-.7c-3.8-.3-5.5,7.1-9,7l-.7-3.8c-6.3-.2-12.5-3.5-19-1.1l-.5-.1a1.7,1.7,0,0,1,1-.6c-.3,0-.6-.1-1-.1a1.7,1.7,0,0,1,1-.6c-3-.2-11.4-2.8-11.2,1.8-.5-2.4-6.29-.2-9.89,1.1l.09-.3-.3.3.3-1c-3.1,3-3.4,3.9-7.3,4.7H215c-.1,0-.1-.1-.2-.1h.3a.9.9,0,0,0-.5-.1.37.37,0,0,1-.1-.3.61.61,0,0,1,.7-.3c-.2-.1-.5-.1-.7-.2a.5.5,0,0,1,.6-.5h.1c-2.5-.8-2.5,1.7-5.1,1.3l.5-.5h-.7l.7-.6h-.7l.7-.7c-3.4-.3-3.2.6-5.1,2.4-2.2,1-6.4-.8-6.8-3.1-.5,1.3-2.2,2.9-4,2.5.1-.1.3-.2.5-.4l-.6-.2a2.65,2.65,0,0,1,.6-.5l-.6-.2a2.65,2.65,0,0,1,.6-.5,9.22,9.22,0,0,0-5.2-.2h0a1.25,1.25,0,0,0-.09-.5h.1a2.46,2.46,0,0,0-.5-1.5l-.1-.2-.2.1-.2-.3a2.18,2.18,0,0,0,.4-.5l-.6.3-.1-.2a2.7,2.7,0,0,1,.7-.8l-.9.5a3.13,3.13,0,0,1,.9-1.1l-1,.5a4,4,0,0,1,1-1.2l-1,.5a4,4,0,0,1,1-1.2l-1,.5a4,4,0,0,1,1-1.2c-3,1.6-8.3,5.2-11.8,4.1l-.2-.3.2-.1-.2-.1c-.1-.1-.1-.3-.2-.4l.4-.2a3.06,3.06,0,0,0-2.3.3,9.61,9.61,0,0,0-2.9-.8c-.3-1.9-4.1-1.2-6-1.3,0,2-1.5,2.1-1.1,3.1a.85.85,0,0,0,0,.7.85.85,0,0,0,0,.7.85.85,0,0,0,0,.7.85.85,0,0,0,0,.7.85.85,0,0,0,0,.7.85.85,0,0,0,0,.7.85.85,0,0,0,0,.7c-.1.1-.1.2-.1.4l-.2.2c-2.3-3.6-7-5.6-7.5-7.8-5.7,1.2-13.2.5-17,5.2a1.27,1.27,0,0,1-.6.1,4.06,4.06,0,0,0,.9-.5,7,7,0,0,1-1.4.3l-.3-.3a2.84,2.84,0,0,0,1.7-.7,10.62,10.62,0,0,1-1.9.4c0-.1-.1-.2-.1-.3.8-.2,1.6-.3,2-.8a14.18,14.18,0,0,1-2.2.5l-.2-.3c.9-.3,1.8-.3,2.3-.9a10.08,10.08,0,0,1-2.5.5l-.1-.2c.9-.5,2-.4,2.6-1-3.2,1.1-9.5.2-10.4,3.5a1.61,1.61,0,0,1-.7-.4c0-.1-.1-.1-.2-.2h-.1c.3-.3.5-.6,0-.7.3-.3.6-.6,0-.7.4-.5.8-.8-1.5-.7l.2-.3-.4-.2.4-.5c-5.3-2.7-9.8-.8-14.5,1.1s-9,3.4-14.8.4a1.42,1.42,0,0,1,.8.9l-.8-.2a52.2,52.2,0,0,0-9.7-.8c-3.4.4-7,.7-10.5.9s-7.1.6-10.6.5a45.74,45.74,0,0,1-5.2-.5,24,24,0,0,1-5.3-1.2c-4-.8-4.2,1.3-6.4,3l-1.1-2.6c-1.2,1.1-2.5,2.2-3.7,3.3-2.7,1.3-5.4-.2-8.3-1.4s-6-2.1-9.3.3l.3.5-.3.2.3.5-.3.2.3.4c-1.2.1-2.7.4-4,.5-1.7.2-3,.2-3-.9-.2.4-.4,2-1.7,1.1l-.4-1.4L14,14.62c-2.6-.2-2.8-1.6-3.2-2.9s-1.2-2.4-4.9-2A16.49,16.49,0,0,0,0,14V89.89H969.39Zm-799,2.9-.4-.1a1.48,1.48,0,0,1,1.3,0Zm-.4-.9c1.1-.3,1.5.1,1.7.5A8.44,8.44,0,0,0,170,4.72Zm52.6,4.1-.2.2.2-.6Zm0-.6-.2.2.2-.67Zm319.3,13-.2-.2h.2v.1l.1.1Zm-.1-.5-.2-.2h.3l.1.2Zm61.6-2.3q0-.15.3,0Zm282.5-6.3h-.1v.1l-.09,0c0,.19.09.38.09.56a1.27,1.27,0,0,0,.1.6h-.1v.3l-.2.1v-.1l.2-.2-.2.1-.1-.4a1.38,1.38,0,0,1,.3-.4h-.1v.1l-.3.1a.31.31,0,0,0-.1-.2,2,2,0,0,1,.3-.52l-.3.12a1.64,1.64,0,0,1,.34-.76l-.34.16a1.1,1.1,0,0,1,.5-1c0,.2.1.4.1.6h-.1v.1C885.79,11.72,885.89,11.92,885.89,12.12ZM930,4.22V4h.1A.35.35,0,0,1,930,4.22Zm15.6,2.6c-.1-.1-.1-.2-.2-.3.1.1.2.1.3.2Zm.4-.2a3,3,0,0,1-.5-.7,9.21,9.21,0,0,0,.8.5Z"/></svg>