<svg data-name="Laag 1" xmlns="http://www.w3.org/2000/svg" viewBox="0 0 970.44 90.84"><title>border-after</title><path d="M.67 0L0 79.34a11.11 11.11 0 0 0 3 1.4l2.41-2.5a1.62 1.62 0 0 0 1.51.1l1 1-3.22.6c2.41 1.6 3-.2 4-1.5a4.75 4.75 0 0 0 2.21 2c.91-1.4 1.91-2.9 2.82-4.4.8 1.6-.91 3.4 1.81 4a1.8 1.8 0 0 0-.1-2.1h.1a1.22 1.22 0 0 0 .2-1.3.85.85 0 0 0 0-.7.85.85 0 0 0 0-.7v-.1c2.21 1.6 2 3.1 3.82 1.3a1.8 1.8 0 0 1-.2 2.1c1.71-1.2 4.83-.9 5.43-3 2.41 2.2 6.64-1.2 7 2.8a8.6 8.6 0 0 1 4.83-3.5h.1c-2.62 4.8 7-.2 6.74 4.9 1-2.2 3.22-2.8 5.73-3.1s5.23-.4 7.45-1.7c-.2.3-.5.8-.91.9 2.41.3 3.22 1.5 4.83 2.3.1-3.1 3.22-4.2 5.33-5.9v3.4a2.45 2.45 0 0 0 .1 1.2 2.37 2.37 0 0 1 1.51-2.3c-.6 1.3-2.21 2.4-1.51 4.4-.3-2.8 5.23-3 4.13-5.3 2.41 2.1 2.11 1 3.42 3.9.3-4.4 2.21-.8 4.13-3.5 3.32 2 1.11 3.9 4.33 2.9a6.78 6.78 0 0 1-1.11.7 2.65 2.65 0 0 0 1.91-.5c.91 1.2-1.91 2.6-1.91 2.6 2.82 0 2.41-1.8 2.41-3.5v-1a1.42 1.42 0 0 1 .2-.6c4.63-.9 2.11 2.4 3.72 4.1 2.92-.9 5.13-3.9 7.24-3.8.1.5.6.8.1 1.4 3-2.5 8.65-.2 12.27-3h.1c-.5.5-.8.7.7.7 0 1.6-3.22 2.2 1.11 2.1a6.79 6.79 0 0 1-1-2.1h1a1.61 1.61 0 0 1-.4-.7h.3c.91-.3 1.91-.6 2.92-1a.63.63 0 0 0 0 .6.85.85 0 0 0 0 .7c-.2.2-.1.8.5 1.9-.6 0-1 .2.2 2.5 5.53 1 6.24-1.4 11.77-.4 1.31-1.7-.3-2.5 1-4.2 8-2.8 5.84 7.8 11.87 3.9 1.41-1.7 2.21-4.9 5.13-4.2l-.2.5h.3l-.3.7h.3l-.3.7h1l-1 2c3.82.3 3.92-2.2 5.53-2.8 1.51 1.1 2.11.8 2.72.2l.7.3c-1.11 1.3-4.33 1-3.52 1.4 3.72 2.9 2.82-1.8 5.73-1.7l.4 3.1c5.63-.3 11.87-2.1 18-2.6a1 1 0 0 0 .4.5c-.5.7-.91 1.5.2 2.2 8.25-1.3 17.31.9 25.05 2.9L200.4 78a1 1 0 0 1 .5 1.7c2.41.9 1.11-.7 1.31-1.9.2-.1.2-.3.2-.5l.3-.3a2 2 0 0 1 1.11.2h.1a1.27 1.27 0 0 1 .4 1.7c-.1.2-.3.3-.4.4 5.53-2.1 15.49-4.4 20.93-1.5l-1.11.8c4.23 1.2 5.23-5.2 9.16-2.6l-.8.4q3.62.45 7.24.6c2.41.1 4.83.1 7.24.2 4.73.2 9.05.8 12.58 3 1.71-3.7 9.26 2.1 10.36-3.1 5.13 2.9 3.52 3.7 11 5.9 1.91.3 3.22-2.8 5.63-3.5l-.6.4.7.1v.1l.2-.1-.2 2.2 3.72-2.7 1.51 3.4 2.41-.6a2.31 2.31 0 0 1-1.61-1.7l1.61-.4a.77.77 0 0 1-.5-.2h1.31l-.8.2a1 1 0 0 0 .91-.2c3.22.4 6.24 2.8 6.24 3.9l8.65-1.8a.9.9 0 0 0 .1.5 4 4 0 0 1-1.81 1c3.42-1.3-.1 3.2 4.13 1-.5-.7.5-1.6.7-2.2 1.91 1.8 6.84 2 10.56 1.5l-.91 1.9c6.44.8 13.88-.2 21.23.2a2.26 2.26 0 0 1-1.51-2.1l1.51.1a3.61 3.61 0 0 1-1-.7h1a3.61 3.61 0 0 1-1-.7h1a4.38 4.38 0 0 1-.7-.4 1.39 1.39 0 0 1 .4-.3h.4l-.2-.1a2.38 2.38 0 0 1 .8-.2l.5 3c1.31-1.4-1-1.3-.1-2.4l.1.4a1.23 1.23 0 0 0 .4-.8 1.39 1.39 0 0 1 .4-.3l.3-.1c.2 0 .3.1.5.2a1.56 1.56 0 0 1-.8.6l1.11-.3a3.47 3.47 0 0 1-1.11 1l1.11-.3a3.47 3.47 0 0 1-1.11 1l1.81-.4a3.35 3.35 0 0 1-1.81 2.5l2.41-.6v.1l.1-.1.91-.2c.1.9-.7 1.3-1 2.4 1.51-1.7 5.43 3.2 7.75.1l.1.9c7.34.4 10.87-.5 16.9-.4.3-2.5 2.62-1.9 4.63-3.8 4.33 1 9.16 3.1 14.49 3.1 3.82-1.1 1.21-2.1 3-3.5.1 2.3 5.53 2.2 2.62 3.8a76.62 76.62 0 0 0 16.5-1.9c-.7-.8-1.51-1.2-1.41-1.8l1.41-.3c1.11.3 2 1.2 1.81 2.1l-.4.2c4.63-1.7 9.86.1 14.89 1.6 4.83 1.5 9.56 2.8 13.08.7l7.24-2.5c-.1.3 0 .7.7 1l.4-.2c-.6.6-1.91 1.4-.4 2.2 8-3.9 12.68.5 19.32-2.1 5.23 6.8 18.21-.6 25.15 3.7l-.4-1.6c1.81-1.6 2.21.9 3.52 1.2-.2-1.2-2-1.4-.91-2.3h.4c.2.1.3.2.5.3a.37.37 0 0 0-.1-.3c14.89-1.8 30.79 2.1 46.18 3.3 5.23.3 3.42-6.8 8.45-5.3l-.2.3.5-.2-.5.8.5-.2-.5.9c.5-.2 1.11-.3 1.61-.5l-1.61 2.6c11.17-3.7 23-.4 34-3.4l.3.1c-.5.6-.5 1.3-1.51 1.3 2.52 2.1 8.75-.1 8.75-1.8 1.81.2.5 1.6 1.61 2.4 2.41 1.2 5.84-2.9 7.24-.8.2.2-.2.5-.5.6 2-.6 6.54.1 5.13-2.1 4.23 1.1 8-1.3 11.47.1a3.14 3.14 0 0 1 1.11-.9l1.31.5-.7-.7c.2 0 .4-.1.6-.1h.1c2.31-.1 5 1.1 5.33-1.7-.1 3.4 5.43 3.2 8.65 1.9.5 0 1.11.1 1.61.1.6.5 1.91.9 1.31 2 3-.1 5.73-1 5.13-3 5.94 4.7 11-4.2 14.59 1.9 5.84-1.6 11.47-2.9 16.9-4V83a80 80 0 0 0 8.25-2.8h.1c0 4-9 .7-8.25 4.9 7.24-1.8 11.37-5.2 18.51-4.9a2.66 2.66 0 0 0-.6.5c.6-.1 1.21-.3 1.81-.4 1.61.5-1.21 1.8-1.81 2.4 7.55-1.9 14.89-.2 21.53-2.6a1.48 1.48 0 0 1-.2-.9c1 0 1.91 0 1.71-1.3a.85.85 0 0 0 0-.7v-.5c1.51-1.3 3.42-2.5 3.72-3.3-1.11 3.5 2.52 2.7 3.92 4l-.1.3.3-.1a6.86 6.86 0 0 0-.3.8l.3-.2-.3.9a2.52 2.52 0 0 0 .7-.4 5.5 5.5 0 0 1-.7 2.5 2.31 2.31 0 0 0 1.61-2.5c.2.1.5.1.7.2l-.1.1.2-.1c.6.4.7 1.1-.2 2.1 4.33-1.1 3.22-2.7 6.14-3.1 0 .1 0 .1-.1.2l.2-.2c.3 0 .6-.1.91-.1.1.9-.8 1.3-1.21 2.3 2-1.8 4.13-3.6 7.85-3-.2.5.2 1-.4 1.2 6-.7 10.06-4.9 16.9-3.7 0 .1.1.1.2.2-1.51 3.7 2.52 1.1 3.22 4.3l3.72-1.2-1.61-1.5c3.22-.1 5.94-2.6 8.85-1.7L769 76.23l6-.9-3.62-1.1a3.06 3.06 0 0 0 .7-.5l2.92-.4-1.51-.5 1.51-.2-1.51-.5 1.51-.2-1.51-.5 1.51-.2-1.51-.5.7-.1c.3 0 .6.1.91.1-.3.1 0 .2.7.2a2.57 2.57 0 0 0-.7.2 4.32 4.32 0 0 0 2.52.1l.91.3-.4.2h1a3.61 3.61 0 0 1 1 .7c1.51-1.1 3-2.3 5.53-1.6a.76.76 0 0 1 .2.5v.6A4.08 4.08 0 0 0 786 73a5.42 5.42 0 0 0 .1 2.2c1.21-2.7 6.94-1.3 9-3.8v.1a3.31 3.31 0 0 0 .1 2.2l1.11-2.3c1.61.6 1.81 1 1.81 2.4 2.72.1 1.61-1.3 1.31-2.2a.57.57 0 0 0 .4-.7 5.89 5.89 0 0 1 1.91.3c-.4.2-.2.5-1 .9 3.12.4 6-.3 9-.8l1.81 1.2.5-1.5a9.26 9.26 0 0 1 1.71-.1.85.85 0 0 0 0 .7q-.3.3.3 1.2c.8-.1 1.71-.3 2.62-.5-.4 1.4-4.23.3-2.62 2.5 7.14-1 14.49-4.8 21.53-4.4l-1.31-.3c.4-4.7 5.33 1.8 8.55-.3-.7.6-.6 2.5-.5 2 4.83.5 9.66-1.8 16.6-3.7l-.5 1.4c2.92.9 7.45.2 10.56.5.7-1.3 2.52-1.2 1.21-2.9 10.26 6.4 17.31-1.8 26.46 3.4-1 .1-2.21 1.2-1.41 1.2l6.94-1.6c-.5-1.3-.8-1.4-1.41-1.7l1.41-.3a3.32 3.32 0 0 0-.3-.6l.3-.1a3.32 3.32 0 0 0-.3-.6l.3-.1a3.32 3.32 0 0 0-.3-.6l.3-.1-.3-.6.2-.1h.1c.2-.1.5-.1.7-.2.1.1.1.2.2.3-1.81 1.5 1.21 3 2.62 4-.3-.6 0-1.3-.2-2 4.23 3.4 0-4.2 5.43-2l-.1 1.1c1.31-.5 2.41-1.4 3.72-1.8v.2h.1a.87.87 0 0 0-.1.7 3.74 3.74 0 0 0 1.81-.8c.7 1.8-2 1-1.81 2.8 1.61-.2 3-1.8 4.53-2.7l1.21.9a7.17 7.17 0 0 0-1.81.8c3.22 2.6 3.42 1.9 5.63 2.2h-.2l5 .9-1.31-.7a10.91 10.91 0 0 1 .8-1.5l.6.1-.5-.2c.1-.2.2-.3.3-.5h.1l-.1-.1c2.31-2.7 5.43-.8 8.55-2.7l.2.2c-1.91 2.4.8 1.3.8 3.6 1.31.7 3.32 1.4 2.92 2.2 1.91-2.3 4 1.4 6.74-2 .3.9 2.41-.1 2.31 2.1 2.82-.9-.91-1.5-.91-2.6.2-.2.5-.3.7-.5a1.72 1.72 0 0 1 .1 1c1.21-.4 1.21-.7.8-1 .2-.1.2-.2.2-.3 4.23-.9 10.26 5 15.29 1.1a13.29 13.29 0 0 0 3.32-1.8l.67-66zm108.08 68.73h.1V69l.2-.2a1.08 1.08 0 0 0-.3.7c-.1-.2-.3-.4-.4-.6h.5zm.1.9v.1l.2-.2a1.08 1.08 0 0 0-.3.7c-.1-.2-.3-.4-.4-.6zm-.5.7h.5v.1l.2-.2a1.08 1.08 0 0 0-.3.7c-.1-.2-.31-.4-.41-.6zm.5 2.8c-.1-.2-.3-.4-.4-.6h.4a1.61 1.61 0 0 1-.4-.7h.4a1.61 1.61 0 0 1-.4-.7h.4l-.1-.1c.91-.2 1.81-.6 2.72-.9.1.2.1.4.2.6s.1.2.1.4c-.31 1.1-2.82.2-2.92 2zM637 83.83a.1.1 0 0 1-.1.1h-.1zm-1.31.7c.3-.2.7-.3 1-.5h.2a.48.48 0 0 0 .2.6z"/></svg>